<svg xmlns="http://www.w3.org/2000/svg" width="933.333" height="933.333" version="1.0" viewBox="0 0 700 700"><path d="M219.7 10.4c-17.3 7.2-21.4 18-14 37.3.4 1.1-8.1 1.3-45.3 1.3-28.5 0-47.3.4-49.6 1-6.1 1.7-11.9 6.9-15.5 13.9L92 70.2l.2 290.7.3 290.6 2.2 4.1c2.8 5.3 7.4 9.9 12.7 12.7l4.1 2.2 78.5.6c54.3.4 82.4 1 91 1.9 17.5 1.9 120.5 1.9 138 0 8.6-.9 36.7-1.5 91-1.9l78.5-.6 4.1-2.2c5.3-2.8 9.9-7.4 12.7-12.7l2.2-4.1.3-290.6.2-290.7-3.3-6.3c-3.6-7-9.4-12.2-15.5-13.9-2.3-.6-21-1-49.4-1-30.8 0-45.8-.3-45.8-1 0-.6.7-2.7 1.5-4.8 2.8-6.5 3.5-11.4 2.3-15.9-1.5-6.1-7.9-13-15.3-16.4l-6-2.9h-251l-5.8 2.4zm253 11.7c4.7 1.8 8.3 5.9 8.3 9.6 0 1.9-4.8 14.8-11.9 31.6-13.1 31.2-15.6 36.6-17.4 37.2-1.1.4-6.5.9-34.7 3.5-5.2.4-43.9.9-86 1.1-70.8.3-76.7.2-79.7-1.4-1.8-1-4-2.8-4.8-4-.8-1.3-7.6-16.9-15-34.6-9.7-23.4-13.3-33-12.9-34.8.8-3.1 5.8-8 8.7-8.6 5.3-1 242.7-.7 245.4.4zm-259.2 46c1.2 3 2.5 6.7 2.9 8.2l.6 2.6-31.2.3-31.3.3-5.7 2.7c-6.7 3.1-13.5 9.2-17.7 15.6-6.3 9.9-6.1 5.3-6.1 129.2 0 61.9-.3 120.9-.7 131.2-.5 16.7-.8 18.8-2.3 18.8-1.5 0-1.7 3.7-2.3 43.7-.4 24-.7 57.3-.7 74V525h-12.7l-.6-159.8c-1-224.1-.9-288 .3-292.4 1.2-4.3 6-9.5 9.3-10.1 1.2-.2 23.3-.4 49.1-.3l47 .1 2.1 5.6zm370.4-5.5c4.3.9 8.8 5.6 10.2 10.7.8 3.1.9 58.6.4 213.4l-.8 209.3h-12.4l-.6-140.3c-.4-77.1-.7-162.3-.8-189.2-.1-48.1-.1-48.9-1.8-44l-1.8 5-.5-9.7c-.4-8.4-1-10.7-3.7-16.2-5.7-11.7-16.9-20.2-29.6-22.5-3.3-.6-17.5-1.1-32.2-1.1-20.1 0-26.3-.3-26.3-1.2 0-.7 1.2-4.3 2.6-8l2.6-6.8H535c25.1 0 47.2.3 48.9.6zm-357.3 40.1c3.2 9 4.6 11.6 8.4 15.4 8.9 8.9 1.5 8.3 111 8.7 67 .2 98.5 0 102.9-.8 7.7-1.3 12.5-3.7 16.7-8.2 3.8-4 5.2-6.7 9-17.6l2.9-8.2h31.6c34.7 0 37.2.3 44.1 6 2 1.7 4.9 5.6 6.5 8.8l2.8 5.7.3 210.7.2 210.8h-25c-16 0-25-.4-25-1 0-.7-55-1-163-1H187v39h283v61H316.2c-172.5 0-160.4.5-168.9-7.3-2.4-2.2-5.4-5.9-6.6-8.2l-2.2-4-.3-249c-.2-228.1-.1-249.3 1.4-253.9 2.1-6.3 7.6-12.3 13.9-15.2 4.9-2.3 5.6-2.4 37.1-2.4h32.2l3.8 10.7zM561 546c0 1.1-77.1 82-78.2 82-.4 0-.8-16-.8-35.5 0-37.6.2-39.8 4.8-43.8 1.1-1 3.3-2.2 4.8-2.7 4.1-1.2 69.4-1.2 69.4 0z"/><path d="M187 159v19h226v-38H187v19zM187 237.5V257h287v-39H187v19.5zM187 316v19h257v-38H187v19zM187 394.5V414h311v-39H187v19.5zM187 473v19h292v-38H187v19z"/></svg>